<?xml version="1.0" encoding="UTF-8" standalone="no"?>
<svg
   width="48"
   height="48"
   viewBox="0 0 48 48"
   fill="none"
   version="1.1"
   id="svg7"
   sodipodi:docname="ethnicity.svg"
   inkscape:version="1.3 (0e150ed, 2023-07-21)"
   xmlns:inkscape="http://www.inkscape.org/namespaces/inkscape"
   xmlns:sodipodi="http://sodipodi.sourceforge.net/DTD/sodipodi-0.dtd"
   xmlns="http://www.w3.org/2000/svg"
   xmlns:svg="http://www.w3.org/2000/svg">
  <defs
     id="defs7" />
  <sodipodi:namedview
     id="namedview7"
     pagecolor="#ffffff"
     bordercolor="#000000"
     borderopacity="0.25"
     inkscape:showpageshadow="2"
     inkscape:pageopacity="0.0"
     inkscape:pagecheckerboard="0"
     inkscape:deskcolor="#d1d1d1"
     inkscape:zoom="4.9166667"
     inkscape:cx="23.898305"
     inkscape:cy="24"
     inkscape:window-width="1312"
     inkscape:window-height="449"
     inkscape:window-x="0"
     inkscape:window-y="44"
     inkscape:window-maximized="0"
     inkscape:current-layer="svg7" />
  <path
     fill-rule="evenodd"
     clip-rule="evenodd"
     d="m 44.033898,13.338983 c 0,3.1693 -2.4573,5.7647 -5.5705,5.9849 l -3.0508,3.0507 c 0.8552,1.4459 1.2397,3.3662 1.429,5.5014 0.1923,2.1688 0.1923,4.7052 0.1923,7.4285 v 1.0345 h -2 v -1 c 0,-2.7636 -8e-4,-5.215 -0.1845,-7.2863 -0.1608,-1.8135 -0.4549,-3.2272 -0.9423,-4.2526 -1.1974,-0.1601 -2.2895,-0.7626 -3.2263,-1.5043 -1.1042,-0.8741 -2.0858,-2.0144 -2.8939,-3.1148 -0.8122,-1.106 -1.4742,-2.2062 -1.932,-3.0267 -0.0615,-0.1101 -0.1194,-0.2154 -0.1735,-0.3152 -1.3432,0.9299 -3.1546,1.4999 -5.1475,1.4999 -4.1421,0 -7.5,-2.4624 -7.5,-5.5 0,-2.7925999 2.8381,-5.0990999 6.5146,-5.4529999 1.2829,-2.35488 4.8213,-4.047 8.9854,-4.047 4.708,0 8.6161,2.163 9.369,5.0014 0.0436,-9e-4 0.0872,-0.0014 0.131,-0.0014 3.3137,0 6,2.6862999 6,5.9999999 z m -11.973,0.5729 c -1.0905,0.2755 -2.2807,0.4271 -3.527,0.4271 -0.4343,0 -0.8618,-0.0184 -1.2806,-0.054 -0.0245,0.0361 -0.0496,0.072 -0.0751,0.1077 0.1078,0.2087 0.25,0.4768 0.4232,0.7871 0.4315,0.7733 1.049,1.7981 1.7975,2.8174 0.0368,0.0501 0.0739,0.1001 0.1112,0.15 l -10e-5,-0.1461 c 1.1051,-9e-4 2.2646,-0.5973 3.2271,-1.3077 0.0737,-0.0544 0.1455,-0.1088 0.215,-0.163 -0.4858,-0.7721 -0.8007,-1.6626 -0.8912,-2.6185 z m 2.2257,4.1133 c 0.5044,0.4038 1.0754,0.7279 1.6938,0.9532 l -2.6187,2.6187 c -0.4653,-0.187 -0.9466,-0.4791 -1.4396,-0.8694 -0.3423,-0.271 -0.6776,-0.5795 -1.0029,-0.9135 1.1832,-0.3064 2.2299,-0.939 3.0056,-1.5116 0.1259,-0.093 0.2467,-0.1858 0.3618,-0.2774 z"
     fill="currentColor"
     id="path1" />
  <path
     d="m 16.294816,28.644662 c 1.495571,-0.0012 2.707019,-1.265356 2.705719,-2.823438 -0.0012,-1.558082 -1.214589,-2.820165 -2.71016,-2.818924 -1.495571,0.0014 -2.707019,1.265469 -2.705827,2.823551 0.0013,1.558081 1.214697,2.820165 2.710268,2.818811 z"
     fill="currentColor"
     id="path2"
     style="stroke-width:1.1056" />
  <path
     d="m 8.7124237,33.158551 c 1.4955923,-0.0012 2.7070293,-1.265356 2.7057293,-2.823438 -0.0012,-1.558082 -1.214578,-2.820165 -2.7101596,-2.818924 -1.4955814,0.0014 -2.7069969,1.265469 -2.7057728,2.823551 0.00122,1.558081 1.2146217,2.820165 2.7102031,2.818811 z"
     fill="currentColor"
     id="path3"
     style="stroke-width:1.1056" />
  <path
     d="m 29.832508,30.334887 c 0.0013,1.558082 -1.210148,2.822197 -2.705718,2.823438 -1.495571,0.0012 -2.708969,-1.260729 -2.710268,-2.818811 -0.0012,-1.558194 1.210256,-2.822309 2.705827,-2.82355 1.49557,-0.0012 2.708968,1.260729 2.710159,2.818923 z"
     fill="currentColor"
     id="path4"
     style="stroke-width:1.1056" />
  <path
     d="m 15.748776,29.770538 c 1.1965,0 2.166395,1.010434 2.166395,2.256945 v 2.256944 h 2.166395 c 1.1965,0 2.166394,1.010435 2.166394,2.256945 0,1.24651 -0.969894,2.256945 -2.166394,2.256945 h -4.33279 c -1.1965,0 -2.166394,-1.010435 -2.166394,-2.256945 v -4.513889 c 0,-1.246511 0.969894,-2.256945 2.166394,-2.256945 z"
     fill="currentColor"
     id="path5"
     style="stroke-width:1.1056" />
  <path
     d="m 10.332789,36.541372 c 0,-1.24651 -0.969927,-2.256945 -2.1663943,-2.256945 C 6.9699274,34.284427 6,35.294862 6,36.541372 v 5.642361 c 0,1.246511 0.9699274,2.256945 2.1663947,2.256945 h 4.3327893 c 1.1965,0 2.166395,-1.010434 2.166395,-2.256945 0,-1.24651 -0.969895,-2.256944 -2.166395,-2.256944 h -2.166395 z"
     fill="currentColor"
     id="path6"
     style="stroke-width:1.1056" />
  <path
     d="m 27.663947,34.284427 c -1.1965,0 -2.166394,1.010435 -2.166394,2.256945 v 3.385417 h -2.166395 c -1.1965,0 -2.166395,1.010434 -2.166395,2.256944 0,1.246511 0.969895,2.256945 2.166395,2.256945 h 4.332789 c 1.1965,0 2.166395,-1.010434 2.166395,-2.256945 v -5.642361 c 0,-1.24651 -0.969895,-2.256945 -2.166395,-2.256945 z"
     fill="currentColor"
     id="path7"
     style="stroke-width:1.1056" />
</svg>
