<?xml version="1.0" encoding="UTF-8" standalone="no"?>
<!-- Uploaded to: SVG Repo, www.svgrepo.com, Generator: SVG Repo Mixer Tools -->

<svg
   height="58.05051"
   width="57.76516"
   version="1.1"
   id="_x32_"
   viewBox="0 0 36.969702 37.152329"
   xml:space="preserve"
   sodipodi:docname="weight.svg"
   inkscape:version="1.3 (0e150ed, 2023-07-21)"
   xmlns:inkscape="http://www.inkscape.org/namespaces/inkscape"
   xmlns:sodipodi="http://sodipodi.sourceforge.net/DTD/sodipodi-0.dtd"
   xmlns="http://www.w3.org/2000/svg"
   xmlns:svg="http://www.w3.org/2000/svg"><defs
   id="defs2" /><sodipodi:namedview
   id="namedview2"
   pagecolor="#ffffff"
   bordercolor="#000000"
   borderopacity="0.25"
   inkscape:showpageshadow="2"
   inkscape:pageopacity="0.0"
   inkscape:pagecheckerboard="0"
   inkscape:deskcolor="#d1d1d1"
   inkscape:zoom="3.0844182"
   inkscape:cx="121.09253"
   inkscape:cy="39.87786"
   inkscape:window-width="1312"
   inkscape:window-height="449"
   inkscape:window-x="425"
   inkscape:window-y="397"
   inkscape:window-maximized="0"
   inkscape:current-layer="_x32_" />&#10;<style
   type="text/css"
   id="style1">&#10;	.st0{fill:#000000;}&#10;</style>&#10;<g
   id="g2"
   transform="matrix(0.05802214,0,0,0.0563534,2.4899348,2.6972039)">&#10;	<path
   class="st0"
   d="M 455.998,0.004 H 56.002 C 25.063,0.011 0.008,25.067 0,56.006 v 399.989 c 0.008,30.938 25.063,55.994 56.002,56.002 h 399.997 c 30.938,-0.008 55.994,-25.063 56.002,-56.002 V 56.006 C 511.993,25.067 486.937,0.011 455.998,0.004 Z m 24.001,455.99 c -0.007,6.68 -2.664,12.579 -7.032,16.969 -4.39,4.367 -10.289,7.024 -16.969,7.032 H 56.002 c -6.68,-0.008 -12.579,-2.664 -16.969,-7.032 -4.367,-4.39 -7.023,-10.289 -7.031,-16.969 V 56.006 c 0.008,-6.68 2.664,-12.579 7.031,-16.977 4.39,-4.359 10.289,-7.016 16.969,-7.023 h 399.997 c 6.68,0.007 12.579,2.664 16.969,7.023 4.367,4.398 7.024,10.297 7.032,16.977 v 399.988 z"
   id="path1" />&#10;	<path
   class="st0"
   d="m 128.012,119.101 26.391,76.783 H 270.86 l 16.352,-67.947 9.938,2.031 9.93,2.015 -10.696,63.9 h 61.212 L 383.988,119.1 C 346.612,96.577 302.83,83.6 256.008,83.6 c -46.83,0 -90.62,12.977 -127.996,35.501 z"
   id="path2" />&#10;</g>&#10;</svg>
